
<svg width="200" height="200" viewBox="0 0 200 200" fill="none" xmlns="http://www.w3.org/2000/svg">
  <circle cx="100" cy="100" r="95" fill="#FFBB1C" stroke="#F77F00" stroke-width="10"/>
  <path d="M68 58C68 51.3726 73.3726 46 80 46H100C118.778 46 134 61.2223 134 80C134 98.7777 118.778 114 100 114H80C73.3726 114 68 108.627 68 102V58Z" fill="#045C94"/>
  <path d="M68 132C68 125.373 73.3726 120 80 120H100C118.778 120 134 135.222 134 154C134 154 134 154 100 154C66 154 68 154 68 154V132Z" fill="#045C94"/>
  <path d="M80 64C80 60.6863 82.6863 58 86 58H100C108.837 58 116 65.1634 116 74C116 82.8366 108.837 90 100 90H86C82.6863 90 80 87.3137 80 84V64Z" fill="#FFBB1C"/>
  <path d="M80 138C80 134.686 82.6863 132 86 132H100C108.837 132 116 139.163 116 148C116 148 116 148 100 148C84 148 80 148 80 148V138Z" fill="#FFBB1C"/>
</svg>
